<svg width="13" height="13" viewBox="0 0 13 13" fill="none" xmlns="http://www.w3.org/2000/svg">
<path d="M4.82812 7.4375H7.40625C7.53906 7.4375 7.65039 7.39232 7.74023 7.30195C7.83008 7.21158 7.875 7.0996 7.875 6.96602C7.875 6.83242 7.83008 6.72135 7.74023 6.63281C7.65039 6.54427 7.53906 6.5 7.40625 6.5H4.82812C4.69531 6.5 4.58398 6.54518 4.49414 6.63555C4.4043 6.72592 4.35938 6.8379 4.35938 6.97148C4.35938 7.10508 4.4043 7.21615 4.49414 7.30469C4.58398 7.39323 4.69531 7.4375 4.82812 7.4375ZM4.82812 6.03125H10.0625C10.1953 6.03125 10.3066 5.98607 10.3965 5.8957C10.4863 5.80533 10.5312 5.69335 10.5312 5.55977C10.5312 5.42617 10.4863 5.3151 10.3965 5.22656C10.3066 5.13802 10.1953 5.09375 10.0625 5.09375H4.82812C4.69531 5.09375 4.58398 5.13893 4.49414 5.2293C4.4043 5.31967 4.35938 5.43165 4.35938 5.56523C4.35938 5.69883 4.4043 5.8099 4.49414 5.89844C4.58398 5.98698 4.69531 6.03125 4.82812 6.03125ZM4.82812 4.625H10.0625C10.1953 4.625 10.3066 4.57982 10.3965 4.48945C10.4863 4.39908 10.5312 4.2871 10.5312 4.15352C10.5312 4.01992 10.4863 3.90885 10.3965 3.82031C10.3066 3.73177 10.1953 3.6875 10.0625 3.6875H4.82812C4.69531 3.6875 4.58398 3.73268 4.49414 3.82305C4.4043 3.91342 4.35938 4.0254 4.35938 4.15898C4.35938 4.29258 4.4043 4.40365 4.49414 4.49219C4.58398 4.58073 4.69531 4.625 4.82812 4.625ZM3.0625 10.875C2.8125 10.875 2.59375 10.7812 2.40625 10.5938C2.21875 10.4062 2.125 10.1875 2.125 9.9375V1.1875C2.125 0.9375 2.21875 0.71875 2.40625 0.53125C2.59375 0.34375 2.8125 0.25 3.0625 0.25H11.8125C12.0625 0.25 12.2812 0.34375 12.4688 0.53125C12.6562 0.71875 12.75 0.9375 12.75 1.1875V9.9375C12.75 10.1875 12.6562 10.4062 12.4688 10.5938C12.2812 10.7812 12.0625 10.875 11.8125 10.875H3.0625ZM3.0625 9.9375H11.8125V1.1875H3.0625V9.9375ZM1.1875 12.75C0.9375 12.75 0.71875 12.6562 0.53125 12.4688C0.34375 12.2812 0.25 12.0625 0.25 11.8125V2.59375C0.25 2.46094 0.295182 2.34961 0.385547 2.25977C0.475922 2.16992 0.587901 2.125 0.721484 2.125C0.855078 2.125 0.966146 2.16992 1.05469 2.25977C1.14323 2.34961 1.1875 2.46094 1.1875 2.59375V11.8125H10.4062C10.5391 11.8125 10.6504 11.8577 10.7402 11.948C10.8301 12.0384 10.875 12.1504 10.875 12.284C10.875 12.4176 10.8301 12.5286 10.7402 12.6172C10.6504 12.7057 10.5391 12.75 10.4062 12.75H1.1875Z" fill="#5F4A8B"/>
</svg>
