<svg width="15" height="13" viewBox="0 0 15 13" fill="none" xmlns="http://www.w3.org/2000/svg">
<path d="M8.29688 12.75C8.05729 12.75 7.88281 12.6719 7.77344 12.5156C7.66406 12.3594 7.65104 12.1667 7.73438 11.9375L10.0312 5.84375C10.0938 5.67708 10.2083 5.53646 10.375 5.42188C10.5417 5.30729 10.7135 5.25 10.8906 5.25C11.0677 5.25 11.2422 5.30729 11.4141 5.42188C11.5859 5.53646 11.7031 5.67708 11.7656 5.84375L14.1094 11.875C14.2031 12.1146 14.1927 12.3203 14.0781 12.4922C13.9635 12.6641 13.7708 12.75 13.5 12.75C13.3854 12.75 13.276 12.7135 13.1719 12.6406C13.0677 12.5677 12.9948 12.474 12.9531 12.3594L12.4375 10.7812H9.4375L8.84375 12.375C8.80208 12.4792 8.72917 12.5677 8.625 12.6406C8.52083 12.7135 8.41146 12.75 8.29688 12.75ZM9.78125 9.6875H12L10.9062 6.65625H10.875L9.78125 9.6875ZM4.51562 4.34375C4.67188 4.61458 4.84375 4.8776 5.03125 5.13281C5.21875 5.38802 5.42188 5.65104 5.64062 5.92188C6.10938 5.43229 6.5 4.92448 6.8125 4.39844C7.125 3.8724 7.39062 3.32292 7.60938 2.75H1.25C1.07292 2.75 0.924479 2.6901 0.804688 2.57031C0.684896 2.45052 0.625 2.30208 0.625 2.125C0.625 1.94792 0.684896 1.79948 0.804688 1.67969C0.924479 1.5599 1.07292 1.5 1.25 1.5H5V0.875C5 0.697917 5.0599 0.549479 5.17969 0.429688C5.29948 0.309896 5.44792 0.25 5.625 0.25C5.80208 0.25 5.95052 0.309896 6.07031 0.429688C6.1901 0.549479 6.25 0.697917 6.25 0.875V1.5H10C10.1771 1.5 10.3255 1.5599 10.4453 1.67969C10.5651 1.79948 10.625 1.94792 10.625 2.125C10.625 2.30208 10.5651 2.45052 10.4453 2.57031C10.3255 2.6901 10.1771 2.75 10 2.75H8.85938C8.63021 3.46875 8.32552 4.17448 7.94531 4.86719C7.5651 5.5599 7.09896 6.21875 6.54688 6.84375L8.07812 8.39062L7.60938 9.65625L5.625 7.75L2.92188 10.4531C2.80729 10.5677 2.66667 10.625 2.5 10.625C2.33333 10.625 2.19271 10.5625 2.07812 10.4375C1.95312 10.3229 1.89062 10.1823 1.89062 10.0156C1.89062 9.84896 1.95312 9.70312 2.07812 9.57812L4.82812 6.82812C4.55729 6.50521 4.30208 6.17969 4.0625 5.85156C3.82292 5.52344 3.60417 5.1875 3.40625 4.84375C3.28125 4.61458 3.27083 4.41667 3.375 4.25C3.47917 4.08333 3.66667 4 3.9375 4C4.05208 4 4.16406 4.03385 4.27344 4.10156C4.38281 4.16927 4.46354 4.25 4.51562 4.34375Z" fill="#5F4A8B"/>
</svg>
