<svg width="410" height="37" viewBox="0 0 410 37" fill="none" xmlns="http://www.w3.org/2000/svg">
<path d="M19.656 18.056L7.128 22.808L19.656 27.992V34.52L0.167999 25.592V20.312L19.656 11.528V18.056Z" fill="#141414"/>
<path d="M25.3474 34.616L39.1714 0.535995L44.8354 2.552L31.0114 36.632L25.3474 34.616Z" fill="#141414"/>
<path d="M62.9707 22.808L50.4427 18.056V11.528L69.9307 20.312V25.592L50.4427 34.52V27.992L62.9707 22.808Z" fill="#141414"/>
<path d="M84.441 35L91.785 2.36H104.361L111.705 35H105.081L103.785 29.096H92.361L91.065 35H84.441ZM96.921 7.832L93.609 23.336H102.537L99.225 7.832H96.921Z" fill="#141414"/>
<path d="M115.476 35V11H121.86V13.544C124.548 11.944 127.108 10.904 129.54 10.424V16.904C126.948 17.448 124.724 18.008 122.868 18.584L121.908 18.92V35H115.476Z" fill="#141414"/>
<path d="M146.631 16.472H140.727V26.312C140.727 27.272 140.743 27.96 140.775 28.376C140.839 28.76 141.015 29.096 141.303 29.384C141.623 29.672 142.103 29.816 142.743 29.816L146.391 29.72L146.679 34.856C144.535 35.336 142.903 35.576 141.783 35.576C138.903 35.576 136.935 34.936 135.879 33.656C134.823 32.344 134.295 29.944 134.295 26.456V16.472H131.463V11H134.295V4.328H140.727V11H146.631V16.472Z" fill="#141414"/>
<path d="M157.252 35H150.82V1.4H157.252V12.152C159.46 11 161.444 10.424 163.204 10.424C166.404 10.424 168.612 11.368 169.828 13.256C171.044 15.144 171.652 18.056 171.652 21.992V35H165.22V22.136C165.22 20.12 164.98 18.632 164.5 17.672C164.02 16.68 163.06 16.184 161.62 16.184C160.372 16.184 159.124 16.376 157.876 16.76L157.252 16.952V35Z" fill="#141414"/>
<path d="M191.511 11H197.943V35H191.559V33.656C189.255 34.936 187.255 35.576 185.559 35.576C182.231 35.576 179.991 34.664 178.839 32.84C177.687 30.984 177.111 27.896 177.111 23.576V11H183.543V23.672C183.543 26.04 183.735 27.656 184.119 28.52C184.503 29.384 185.431 29.816 186.903 29.816C188.311 29.816 189.639 29.592 190.887 29.144L191.511 28.952V11Z" fill="#141414"/>
<path d="M203.882 35V11H210.266V13.544C212.954 11.944 215.514 10.904 217.946 10.424V16.904C215.354 17.448 213.13 18.008 211.274 18.584L210.314 18.92V35H203.882Z" fill="#141414"/>
<path d="M253.553 34.472C250.161 35.208 247.105 35.576 244.385 35.576C241.665 35.576 239.489 35.24 237.857 34.568C236.225 33.896 234.944 32.824 234.016 31.352C233.089 29.88 232.449 28.152 232.096 26.168C231.744 24.184 231.568 21.688 231.568 18.68C231.568 12.376 232.449 7.992 234.208 5.528C236.001 3.032 239.28 1.784 244.048 1.784C246.8 1.784 249.984 2.216 253.6 3.08L253.409 8.36C250.241 7.88 247.6 7.64 245.488 7.64C243.408 7.64 241.921 7.928 241.025 8.504C240.129 9.048 239.456 10.104 239.008 11.672C238.592 13.24 238.385 15.912 238.385 19.688C238.385 23.464 238.816 26.088 239.68 27.56C240.576 29 242.337 29.72 244.96 29.72C247.617 29.72 250.433 29.496 253.409 29.048L253.553 34.472Z" fill="#141414"/>
<path d="M276.735 18.488V28.472C276.799 29.24 276.927 29.784 277.119 30.104C277.311 30.392 277.711 30.6 278.319 30.728L278.127 35.576C276.495 35.576 275.183 35.464 274.191 35.24C273.231 35.016 272.255 34.568 271.263 33.896C268.959 35.016 266.607 35.576 264.207 35.576C259.247 35.576 256.767 32.952 256.767 27.704C256.767 25.144 257.455 23.336 258.831 22.28C260.207 21.192 262.319 20.552 265.167 20.36L270.303 19.976V18.488C270.303 17.496 270.079 16.824 269.631 16.472C269.183 16.088 268.463 15.896 267.471 15.896L258.447 16.28L258.255 11.816C261.679 10.888 264.927 10.424 267.999 10.424C271.103 10.424 273.327 11.064 274.671 12.344C276.047 13.624 276.735 15.672 276.735 18.488ZM265.935 24.824C264.143 24.984 263.247 25.944 263.247 27.704C263.247 29.464 264.031 30.344 265.599 30.344C266.815 30.344 268.143 30.152 269.583 29.768L270.303 29.576V24.44L265.935 24.824Z" fill="#141414"/>
<path d="M282.867 35V11H289.251V13.544C291.939 11.944 294.499 10.904 296.931 10.424V16.904C294.339 17.448 292.115 18.008 290.259 18.584L289.299 18.92V35H282.867Z" fill="#141414"/>
<path d="M298.47 11H305.19L309.03 29.528H310.374L314.406 11H320.934L315.174 35H304.23L298.47 11Z" fill="#141414"/>
<path d="M342.735 18.488V28.472C342.799 29.24 342.927 29.784 343.119 30.104C343.311 30.392 343.711 30.6 344.319 30.728L344.127 35.576C342.495 35.576 341.183 35.464 340.191 35.24C339.231 35.016 338.255 34.568 337.263 33.896C334.959 35.016 332.607 35.576 330.207 35.576C325.247 35.576 322.767 32.952 322.767 27.704C322.767 25.144 323.455 23.336 324.831 22.28C326.207 21.192 328.319 20.552 331.167 20.36L336.303 19.976V18.488C336.303 17.496 336.079 16.824 335.631 16.472C335.183 16.088 334.463 15.896 333.471 15.896L324.447 16.28L324.255 11.816C327.679 10.888 330.927 10.424 333.999 10.424C337.103 10.424 339.327 11.064 340.671 12.344C342.047 13.624 342.735 15.672 342.735 18.488ZM331.935 24.824C330.143 24.984 329.247 25.944 329.247 27.704C329.247 29.464 330.031 30.344 331.599 30.344C332.815 30.344 334.143 30.152 335.583 29.768L336.303 29.576V24.44L331.935 24.824Z" fill="#141414"/>
<path d="M349.155 35V1.4H355.587V35H349.155Z" fill="#141414"/>
<path d="M368.236 35H361.804V1.4H368.236V12.152C370.444 11 372.428 10.424 374.188 10.424C377.388 10.424 379.596 11.368 380.812 13.256C382.028 15.144 382.636 18.056 382.636 21.992V35H376.204V22.136C376.204 20.12 375.964 18.632 375.484 17.672C375.004 16.68 374.044 16.184 372.604 16.184C371.356 16.184 370.108 16.376 368.86 16.76L368.236 16.952V35Z" fill="#141414"/>
<path d="M389.631 13.736C391.327 11.528 394.159 10.424 398.127 10.424C402.095 10.424 404.927 11.528 406.623 13.736C408.319 15.912 409.167 18.984 409.167 22.952C409.167 31.368 405.487 35.576 398.127 35.576C390.767 35.576 387.087 31.368 387.087 22.952C387.087 18.984 387.935 15.912 389.631 13.736ZM394.575 28.376C395.247 29.528 396.431 30.104 398.127 30.104C399.823 30.104 400.991 29.528 401.631 28.376C402.303 27.224 402.639 25.416 402.639 22.952C402.639 20.488 402.303 18.696 401.631 17.576C400.991 16.456 399.823 15.896 398.127 15.896C396.431 15.896 395.247 16.456 394.575 17.576C393.935 18.696 393.615 20.488 393.615 22.952C393.615 25.416 393.935 27.224 394.575 28.376Z" fill="#141414"/>
</svg>
